<svg width="30" height="30" viewBox="0 0 30 30" fill="none" xmlns="http://www.w3.org/2000/svg">
<path d="M14.9937 0C6.72625 0 0 6.7275 0 14.995C0 23.27 6.72625 30 14.9937 30C23.2687 30 30 23.2688 30 14.995C30 6.7275 23.2687 0 14.9937 0ZM7.385 20.505C9.10178 19.9791 10.887 19.7103 12.6825 19.7075C15.7 19.7075 18.6788 20.4725 21.2975 21.92C21.4538 22.005 21.595 22.285 21.66 22.635C21.7225 22.985 21.6975 23.3438 21.595 23.53C21.5467 23.6186 21.4813 23.6967 21.4026 23.7598C21.3238 23.823 21.2334 23.8698 21.1364 23.8977C21.0394 23.9257 20.9379 23.934 20.8377 23.9224C20.7374 23.9108 20.6405 23.8794 20.5525 23.83C18.629 22.7748 16.5132 22.1167 14.3305 21.8946C12.1478 21.6726 9.94283 21.8912 7.84625 22.5375C7.75 22.5686 7.64852 22.5803 7.54773 22.5718C7.44693 22.5633 7.34882 22.5349 7.25913 22.4881C7.16944 22.4413 7.08994 22.3772 7.02528 22.2994C6.96062 22.2216 6.91209 22.1317 6.8825 22.035C6.74875 21.5975 7.025 20.6225 7.385 20.505ZM6.73125 14.98C8.67068 14.4531 10.6715 14.1862 12.6813 14.1862C16.2987 14.1862 19.89 15.0612 23.0688 16.7188C23.2925 16.8312 23.4563 17.0238 23.5312 17.2588C23.5692 17.3774 23.5829 17.5025 23.5718 17.6266C23.5606 17.7507 23.5247 17.8712 23.4663 17.9813C23.1825 18.5363 22.85 18.91 22.6413 18.91C22.489 18.9093 22.339 18.8725 22.2038 18.8025C19.2653 17.2684 15.9973 16.4729 12.6825 16.485C10.8387 16.4813 9.00282 16.7273 7.225 17.2162C7.1064 17.2487 6.98257 17.2574 6.8606 17.242C6.73862 17.2265 6.62087 17.1872 6.51408 17.1263C6.4073 17.0654 6.31356 16.984 6.23822 16.8868C6.16288 16.7897 6.10742 16.6786 6.075 16.56C5.935 16.0325 6.25625 15.11 6.73125 14.98ZM6.5625 11.3725C6.4218 11.4086 6.27535 11.4165 6.13159 11.3957C5.98783 11.3749 5.84961 11.3259 5.72491 11.2514C5.60021 11.1769 5.49151 11.0784 5.40506 10.9617C5.31861 10.8449 5.25614 10.7123 5.22125 10.5712C5.0675 9.94875 5.45625 9.22625 6.02125 9.08375C8.20063 8.54696 10.4367 8.27458 12.6813 8.2725C16.9938 8.2725 21.1262 9.2425 24.9613 11.1562C25.2247 11.2873 25.4254 11.5176 25.5192 11.7965C25.6129 12.0754 25.5921 12.3802 25.4613 12.6437C25.2825 13.0037 24.895 13.3913 24.4675 13.3913C24.2999 13.3906 24.1344 13.3535 23.9825 13.2825C20.4757 11.5233 16.6045 10.613 12.6813 10.625C10.6375 10.625 8.57875 10.8762 6.5625 11.3725Z" fill="white"/>
</svg>
