<svg width="51" height="50" viewBox="0 0 51 50" fill="none" xmlns="http://www.w3.org/2000/svg">
<path d="M25.0132 14.5034C19.4712 14.5034 14.9985 18.9761 14.9985 24.5181C14.9985 30.06 19.4712 34.5327 25.0132 34.5327C30.5552 34.5327 35.0278 30.06 35.0278 24.5181C35.0278 18.9761 30.5552 14.5034 25.0132 14.5034ZM25.0132 31.0268C21.4292 31.0268 18.5044 28.102 18.5044 24.5181C18.5044 20.9341 21.4292 18.0093 25.0132 18.0093C28.5972 18.0093 31.522 20.9341 31.522 24.5181C31.522 28.102 28.5972 31.0268 25.0132 31.0268ZM35.438 11.7593C34.144 11.7593 33.0991 12.8042 33.0991 14.0981C33.0991 15.3921 34.144 16.437 35.438 16.437C36.7319 16.437 37.7768 15.397 37.7768 14.0981C37.7772 13.7909 37.717 13.4866 37.5996 13.2026C37.4822 12.9187 37.3099 12.6607 37.0927 12.4434C36.8754 12.2262 36.6174 12.0539 36.3335 11.9365C36.0495 11.8191 35.7452 11.7589 35.438 11.7593ZM44.5347 24.5181C44.5347 21.8227 44.5591 19.1518 44.4077 16.4614C44.2563 13.3364 43.5434 10.563 41.2583 8.27782C38.9683 5.98778 36.1997 5.27977 33.0747 5.12841C30.3794 4.97704 27.7085 5.00145 25.0181 5.00145C22.3227 5.00145 19.6518 4.97704 16.9614 5.12841C13.8364 5.27977 11.063 5.99266 8.77782 8.27782C6.48778 10.5679 5.77977 13.3364 5.62841 16.4614C5.47704 19.1567 5.50145 21.8276 5.50145 24.5181C5.50145 27.2085 5.47704 29.8843 5.62841 32.5747C5.77977 35.6997 6.49266 38.4731 8.77782 40.7583C11.0679 43.0483 13.8364 43.7563 16.9614 43.9077C19.6567 44.0591 22.3276 44.0347 25.0181 44.0347C27.7134 44.0347 30.3843 44.0591 33.0747 43.9077C36.1997 43.7563 38.9731 43.0434 41.2583 40.7583C43.5483 38.4682 44.2563 35.6997 44.4077 32.5747C44.564 29.8843 44.5347 27.2134 44.5347 24.5181ZM40.2378 36.0317C39.8813 36.9204 39.4516 37.5845 38.7632 38.2681C38.0747 38.9565 37.4155 39.3862 36.5268 39.7427C33.9585 40.7632 27.8598 40.5337 25.0132 40.5337C22.1665 40.5337 16.063 40.7632 13.4946 39.7475C12.6059 39.3911 11.9419 38.9614 11.2583 38.2729C10.5698 37.5845 10.1401 36.9253 9.78368 36.0366C8.76805 33.4634 8.99755 27.3647 8.99755 24.5181C8.99755 21.6714 8.76805 15.5679 9.78368 12.9995C10.1401 12.1108 10.5698 11.4468 11.2583 10.7632C11.9468 10.0796 12.6059 9.64501 13.4946 9.28856C16.063 8.27294 22.1665 8.50243 25.0132 8.50243C27.8598 8.50243 33.9634 8.27294 36.5317 9.28856C37.4204 9.64501 38.0845 10.0747 38.7681 10.7632C39.4565 11.4516 39.8862 12.1108 40.2427 12.9995C41.2583 15.5679 41.0288 21.6714 41.0288 24.5181C41.0288 27.3647 41.2583 33.4634 40.2378 36.0317Z" fill="white"/>
</svg>
