<svg width="50" height="50" viewBox="0 0 50 50" fill="none" xmlns="http://www.w3.org/2000/svg">
<path d="M43.75 0C45.4076 0 46.9973 0.65848 48.1694 1.83058C49.3415 3.00269 50 4.5924 50 6.25V43.75C50 45.4076 49.3415 46.9973 48.1694 48.1694C46.9973 49.3415 45.4076 50 43.75 50H6.25C4.5924 50 3.00269 49.3415 1.83058 48.1694C0.65848 46.9973 0 45.4076 0 43.75V6.25C0 4.5924 0.65848 3.00269 1.83058 1.83058C3.00269 0.65848 4.5924 0 6.25 0L43.75 0ZM18.45 33.7594L31.25 20.9594V29.6094C31.25 30.0238 31.4146 30.4212 31.7076 30.7142C32.0007 31.0073 32.3981 31.1719 32.8125 31.1719C33.2269 31.1719 33.6243 31.0073 33.9174 30.7142C34.2104 30.4212 34.375 30.0238 34.375 29.6094V17.1875C34.375 16.7731 34.2104 16.3757 33.9174 16.0826C33.6243 15.7896 33.2269 15.625 32.8125 15.625H20.3906C19.9762 15.625 19.5788 15.7896 19.2858 16.0826C18.9927 16.3757 18.8281 16.7731 18.8281 17.1875C18.8281 17.6019 18.9927 17.9993 19.2858 18.2924C19.5788 18.5854 19.9762 18.75 20.3906 18.75H29.0406L16.2406 31.55C15.956 31.8447 15.7985 32.2394 15.8021 32.6491C15.8056 33.0587 15.97 33.4506 16.2597 33.7403C16.5494 34.03 16.9413 34.1944 17.3509 34.1979C17.7606 34.2015 18.1553 34.044 18.45 33.7594Z" fill="#3C8DA9"/>
</svg>
