<svg width="51" height="50" viewBox="0 0 51 50" fill="none" xmlns="http://www.w3.org/2000/svg">
<path d="M20.975 20.975C19.55 20.975 18.425 22.225 18.425 23.75C18.425 25.275 19.575 26.525 20.975 26.525C22.4 26.525 23.525 25.275 23.525 23.75C23.55 22.225 22.4 20.975 20.975 20.975ZM30.1 20.975C28.675 20.975 27.55 22.225 27.55 23.75C27.55 25.275 28.7 26.525 30.1 26.525C31.525 26.525 32.65 25.275 32.65 23.75C32.65 22.225 31.525 20.975 30.1 20.975Z" fill="white"/>
<path d="M42.25 0H8.75C5.925 0 3.625 2.3 3.625 5.15V38.95C3.625 41.8 5.925 44.1 8.75 44.1H37.1L35.775 39.475L38.975 42.45L42 45.25L47.375 50V5.15C47.375 2.3 45.075 0 42.25 0ZM32.6 32.65C32.6 32.65 31.7 31.575 30.95 30.625C34.225 29.7 35.475 27.65 35.475 27.65C34.45 28.325 33.475 28.8 32.6 29.125C31.35 29.65 30.15 30 28.975 30.2C26.8339 30.5942 24.638 30.5857 22.5 30.175C21.2448 29.9294 20.0147 29.5696 18.825 29.1C18.1979 28.8589 17.5881 28.5748 17 28.25C16.925 28.2 16.85 28.175 16.775 28.125C16.725 28.1 16.7 28.075 16.675 28.05C16.225 27.8 15.975 27.625 15.975 27.625C15.975 27.625 17.175 29.625 20.35 30.575C19.6 31.525 18.675 32.65 18.675 32.65C13.15 32.475 11.05 28.85 11.05 28.85C11.05 20.8 14.65 14.275 14.65 14.275C18.25 11.575 21.675 11.65 21.675 11.65L21.925 11.95C17.425 13.25 15.35 15.225 15.35 15.225C15.35 15.225 15.9 14.925 16.825 14.5C19.5 13.325 21.625 13 22.5 12.925C22.65 12.9 22.775 12.875 22.925 12.875C27.2603 12.2882 31.6692 13.1122 35.5 15.225C35.5 15.225 33.525 13.35 29.275 12.05L29.625 11.65C29.625 11.65 33.05 11.575 36.65 14.275C36.65 14.275 40.25 20.8 40.25 28.85C40.25 28.85 38.125 32.475 32.6 32.65Z" fill="white"/>
</svg>
