<svg width="31" height="32" viewBox="0 0 31 32" fill="none" xmlns="http://www.w3.org/2000/svg">
<path d="M8.71354 10.8576C8.58497 10.8576 8.45382 10.8285 8.33125 10.7668C4.57698 8.88964 1.91642 4.31594 1.04471 1.69995C0.893853 1.25081 1.13728 0.765671 1.58642 0.615671C2.03642 0.464815 2.52156 0.7091 2.6707 1.15738C3.42241 3.41337 5.83183 7.6005 9.09839 9.23335C9.52182 9.44507 9.69325 9.96021 9.48153 10.3836C9.33068 10.6845 9.02811 10.8576 8.71354 10.8576V10.8576Z" stroke="#77B255"/>
<path d="M21.4285 25.429C21.4285 28.1904 19.19 30.429 16.4286 30.429C13.6672 30.429 11.4286 28.1904 11.4286 25.429C11.4286 22.6676 13.6672 20.429 16.4286 20.429C19.19 20.429 21.4285 22.6676 21.4285 25.429Z" fill="black" stroke="#5F09A3" stroke-width="2"/>
<path d="M13.7144 13.4291C13.7144 16.1905 11.4759 18.429 8.71445 18.429C5.95304 18.429 3.71448 16.1905 3.71448 13.4291C3.71448 10.6676 5.95304 8.42908 8.71445 8.42908C11.4759 8.42908 13.7144 10.6676 13.7144 13.4291Z" fill="black" stroke="#5F09A3" stroke-width="2"/>
<path d="M21.4285 10.8576C21.4285 13.619 19.19 15.8576 16.4286 15.8576C13.6672 15.8576 11.4286 13.619 11.4286 10.8576C11.4286 8.09617 13.6672 5.8576 16.4286 5.8576C19.19 5.8576 21.4285 8.09617 21.4285 10.8576Z" fill="black" stroke="#5F09A3" stroke-width="2"/>
<path d="M28.2858 16.0005C28.2858 18.7619 26.0473 21.0004 23.2859 21.0004C20.5245 21.0004 18.2859 18.7619 18.2859 16.0005C18.2859 13.2391 20.5245 11.0005 23.2859 11.0005C26.0473 11.0005 28.2858 13.2391 28.2858 16.0005Z" fill="black" stroke="#5F09A3" stroke-width="2"/>
<path d="M12.8571 22.8576C12.8571 25.619 10.6186 27.8576 7.85715 27.8576C5.09574 27.8576 2.85718 25.619 2.85718 22.8576C2.85718 20.0962 5.09574 17.8576 7.85715 17.8576C10.6186 17.8576 12.8571 20.0962 12.8571 22.8576Z" fill="black" stroke="#5F09A3" stroke-width="2"/>
<path d="M20.5715 18.5719C20.5715 21.3333 18.3329 23.5719 15.5715 23.5719C12.8101 23.5719 10.5715 21.3333 10.5715 18.5719C10.5715 15.8105 12.8101 13.5719 15.5715 13.5719C18.3329 13.5719 20.5715 15.8105 20.5715 18.5719Z" fill="black" stroke="#5F09A3" stroke-width="2"/>
<path d="M30 25.429C30 28.1904 27.7614 30.429 25 30.429C22.2386 30.429 20 28.1904 20 25.429C20 22.6676 22.2386 20.429 25 20.429C27.7614 20.429 30 22.6676 30 25.429Z" fill="black" stroke="#5F09A3" stroke-width="2"/>
</svg>
