<svg width="50" height="50" viewBox="0 0 50 50" fill="none" xmlns="http://www.w3.org/2000/svg">
<path d="M38.7021 3.125H25.7812L34.0029 14.0879L38.7021 3.125Z" fill="#3C8DA9"/>
<path d="M11.2979 3.125L15.9971 14.0879L24.2187 3.125H11.2979Z" fill="#3C8DA9"/>
<path d="M25 7.29199L18.75 15.625H31.25L25 7.29199Z" fill="#3C8DA9"/>
<path d="M41.3037 4.98633L36.7441 15.625H47.6562L41.3037 4.98633Z" fill="#3C8DA9"/>
<path d="M8.69629 4.98633L2.24609 15.625H13.2559L8.69629 4.98633Z" fill="#3C8DA9"/>
<path d="M14.3242 18.75H2.34375L24.1016 46.875H24.1533L14.3242 18.75Z" fill="#3C8DA9"/>
<path d="M35.6758 18.75L25.8467 46.875H25.8984L47.6562 18.75H35.6758Z" fill="#3C8DA9"/>
<path d="M32.167 18.75H17.833L25 39.0625L32.167 18.75Z" fill="#3C8DA9"/>
</svg>
