<svg width="30" height="32" viewBox="0 0 30 32" fill="none" xmlns="http://www.w3.org/2000/svg">
<g clip-path="url(#clip0)">
<path d="M15 3.04651C12.9547 3.04651 11.3568 3.79929 10.2064 5.30485C9.05588 6.81041 8.48064 8.73496 8.48064 11.0785C8.46644 13.9902 9.40386 16.2983 11.2929 18.0027C11.5344 18.2299 11.6196 18.5211 11.5486 18.8762L11.0586 19.8988C10.9023 20.2397 10.6715 20.506 10.3661 20.6978C10.0608 20.8895 9.41806 21.1629 8.43803 21.518C8.39542 21.5322 7.49706 21.8234 5.74294 22.3915C3.98882 22.9597 3.05495 23.2721 2.94132 23.3289C1.74824 23.8261 0.967051 24.3445 0.597763 24.8842C0.200068 25.779 0.0012207 28.0445 0.0012207 31.6805H29.9988C29.9988 28.0445 29.7999 25.779 29.4022 24.8842C29.0329 24.3445 28.2517 23.8261 27.0587 23.3289C26.945 23.2721 26.0112 22.9597 24.257 22.3915C22.5029 21.8234 21.6046 21.5322 21.562 21.518C20.5819 21.1629 19.9392 20.8895 19.6338 20.6978C19.3285 20.506 19.0977 20.2397 18.9414 19.8988L18.4514 18.8762C18.3804 18.5211 18.4656 18.2299 18.7071 18.0027C20.5961 16.2983 21.5335 13.9902 21.5193 11.0785C21.5193 8.73496 20.9441 6.81041 19.7936 5.30485C18.6432 3.79929 17.0453 3.04651 15 3.04651Z" fill="white"/>
</g>
<defs>
<clipPath id="clip0">
<rect width="30" height="31.3611" fill="white" transform="translate(0 0.319458)"/>
</clipPath>
</defs>
</svg>
