<svg width="120" height="123" viewBox="0 0 120 123" fill="none" xmlns="http://www.w3.org/2000/svg">
<g style="mix-blend-mode:multiply" filter="url(#filter0_d)">
<path d="M35.7118 40.2886C35.2832 40.2886 34.8461 40.1915 34.4375 39.9857C21.9233 33.7286 13.0547 18.483 10.149 9.76303C9.64618 8.26589 10.4576 6.64875 11.9547 6.14876C13.4547 5.6459 15.0719 6.46018 15.569 7.95446C18.0747 15.4744 26.1061 29.4315 36.9946 34.8743C38.406 35.5801 38.9775 37.2972 38.2718 38.7086C37.7689 39.7115 36.7603 40.2886 35.7118 40.2886Z" fill="#77B255"/>
<path d="M61.4287 108.86C72.4744 108.86 81.4287 99.9054 81.4287 88.8598C81.4287 77.8141 72.4744 68.8598 61.4287 68.8598C50.3831 68.8598 41.4288 77.8141 41.4288 88.8598C41.4288 99.9054 50.3831 108.86 61.4287 108.86Z" fill="#553788"/>
<path d="M35.7146 68.8598C46.7603 68.8598 55.7145 59.9056 55.7145 48.8599C55.7145 37.8143 46.7603 28.86 35.7146 28.86C24.669 28.86 15.7147 37.8143 15.7147 48.8599C15.7147 59.9056 24.669 68.8598 35.7146 68.8598Z" fill="#9266CC"/>
<path d="M61.4287 60.2884C72.4744 60.2884 81.4287 51.3342 81.4287 40.2885C81.4287 29.2429 72.4744 20.2886 61.4287 20.2886C50.3831 20.2886 41.4288 29.2429 41.4288 40.2885C41.4288 51.3342 50.3831 60.2884 61.4287 60.2884Z" fill="#AA8DD8"/>
<path d="M84.2858 77.4312C95.3314 77.4312 104.286 68.477 104.286 57.4313C104.286 46.3857 95.3314 37.4314 84.2858 37.4314C73.2402 37.4314 64.2859 46.3857 64.2859 57.4313C64.2859 68.477 73.2402 77.4312 84.2858 77.4312Z" fill="#744EAA"/>
<path d="M32.8575 100.288C43.9031 100.288 52.8574 91.334 52.8574 80.2883C52.8574 69.2427 43.9031 60.2884 32.8575 60.2884C21.8118 60.2884 12.8575 69.2427 12.8575 80.2883C12.8575 91.334 21.8118 100.288 32.8575 100.288Z" fill="#744EAA"/>
<path d="M58.5717 86.0026C69.6173 86.0026 78.5716 77.0483 78.5716 66.0027C78.5716 54.9571 69.6173 46.0028 58.5717 46.0028C47.526 46.0028 38.5718 54.9571 38.5718 66.0027C38.5718 77.0483 47.526 86.0026 58.5717 86.0026Z" fill="#9266CC"/>
<path d="M90 108.86C101.046 108.86 110 99.9054 110 88.8598C110 77.8141 101.046 68.8598 90 68.8598C78.9544 68.8598 70.0001 77.8141 70.0001 88.8598C70.0001 99.9054 78.9544 108.86 90 108.86Z" fill="#9266CC"/>
</g>
<defs>
<filter id="filter0_d" x="0" y="0" width="120" height="122.86" filterUnits="userSpaceOnUse" color-interpolation-filters="sRGB">
<feFlood flood-opacity="0" result="BackgroundImageFix"/>
<feColorMatrix in="SourceAlpha" type="matrix" values="0 0 0 0 0 0 0 0 0 0 0 0 0 0 0 0 0 0 127 0"/>
<feOffset dy="4"/>
<feGaussianBlur stdDeviation="5"/>
<feColorMatrix type="matrix" values="0 0 0 0 0 0 0 0 0 0 0 0 0 0 0 0 0 0 0.5 0"/>
<feBlend mode="normal" in2="BackgroundImageFix" result="effect1_dropShadow"/>
<feBlend mode="normal" in="SourceGraphic" in2="effect1_dropShadow" result="shape"/>
</filter>
</defs>
</svg>
